<?xml version="1.0" encoding="utf-8" standalone="no"?><!DOCTYPE svg PUBLIC "-//W3C//DTD SVG 20010904//EN" "http://www.w3.org/TR/2001/REC-SVG-20010904/DTD/svg10.dtd"><svg xmlns="http://www.w3.org/2000/svg" width="411" height="364" xmlns:xlink="http://www.w3.org/1999/xlink"><source><![CDATA[Title: mitm view
Client->tcpproxy: I'am a user
tcpproxy->Server: I'am a user
Server->tcpproxy: He is a user
tcpproxy-->Client: He is an admin
Note left of tcpproxy: Patch packets]]></source><desc>mitm view</desc><defs><marker viewBox="0 0 5 5" markerWidth="5" markerHeight="5" orient="auto" refX="5" refY="2.5" id="markerArrowBlock"><path d="M 0 0 L 5 2.5 L 0 5 z"></path></marker><marker viewBox="0 0 9.6 16" markerWidth="4" markerHeight="16" orient="auto" refX="9.6" refY="8" id="markerArrowOpen"><path d="M 9.6,8 1.92,16 0,13.7 5.76,8 0,2.286 1.92,0 9.6,8 z"></path></marker></defs><g class="title"><path d="M10,10C95.0,14.0 58.0,6.0 111.2,10.0C110.1,29.8 112.2,28.3 111.2,36.0C73.9,40.0 26.7,32.0 10.0,36.0C11.0,19.5 9.0,27.9 10.0,10.0" stroke="#000000" fill="#ffffff" style="stroke-width: 2;"></path><text x="15" y="28" style="font-size: 16px; font-family: danielbd;"><tspan x="15">mitm view</tspan></text></g><g class="actor"><path d="M10,46C41.4,43.1 65.2,48.9 82.7,46.0C84.3,70.0 81.0,77.2 82.7,87.0C38.4,84.1 21.6,89.9 10.0,87.0C8.4,55.8 11.6,52.9 10.0,46.0" stroke="#000000" fill="#ffffff" style="stroke-width: 2;"></path><text x="20" y="72" style="font-size: 16px; font-family: danielbd;"><tspan x="20">Client</tspan></text></g><g class="actor"><path d="M10,303C27.4,305.9 65.2,300.1 82.7,303.0C84.3,325.5 81.0,335.8 82.7,344.0C21.6,346.9 63.1,341.1 10.0,344.0C11.6,327.2 8.4,319.3 10.0,303.0" stroke="#000000" fill="#ffffff" style="stroke-width: 2;"></path><text x="20" y="329" style="font-size: 16px; font-family: danielbd;"><tspan x="20">Client</tspan></text></g><path d="M46.3,87.0C37.7,268.1 55.0,151.6 46.3,303.0" stroke="#000000" fill="none" style="stroke-width: 2;"></path><g class="actor"><path d="M166.703125,46C205.0,42.0 209.4,50.0 267.1,46.0C265.5,52.6 268.7,55.8 267.1,87.0C182.8,83.0 251.0,91.0 166.7,87.0C168.3,62.2 165.1,77.2 166.7,46.0" stroke="#000000" fill="#ffffff" style="stroke-width: 2;"></path><text x="177.703125" y="69" style="font-size: 16px; font-family: danielbd;"><tspan x="176.703125">tcpproxy</tspan></text></g><g class="actor"><path d="M166.703125,303C251.0,307.0 228.2,299.0 267.1,303.0C268.7,313.5 265.5,321.3 267.1,344.0C190.8,348.0 243.0,340.0 166.7,344.0C165.1,309.6 168.3,312.8 166.7,303.0" stroke="#000000" fill="#ffffff" style="stroke-width: 2;"></path><text x="177.703125" y="326" style="font-size: 16px; font-family: danielbd;"><tspan x="176.703125">tcpproxy</tspan></text></g><path d="M216.9,87.0C208.3,268.4 225.5,179.9 216.9,303.0" stroke="#000000" fill="none" style="stroke-width: 2;"></path><g class="actor"><path d="M302.03125,46C314.7,49.2 351.1,42.8 381.4,46.0C379.8,71.0 383.1,65.5 381.4,87.0C349.8,90.2 359.9,83.8 302.0,87.0C300.4,77.2 303.7,78.5 302.0,46.0" stroke="#000000" fill="#ffffff" style="stroke-width: 2;"></path><text x="313.03125" y="71.5" style="font-size: 16px; font-family: danielbd;"><tspan x="312.03125">Server</tspan></text></g><g class="actor"><path d="M302.03125,303C322.3,306.2 321.1,299.8 381.4,303.0C379.8,322.1 383.1,320.8 381.4,344.0C350.1,347.2 353.7,340.8 302.0,344.0C300.4,324.9 303.7,337.1 302.0,303.0" stroke="#000000" fill="#ffffff" style="stroke-width: 2;"></path><text x="313.03125" y="328.5" style="font-size: 16px; font-family: danielbd;"><tspan x="312.03125">Server</tspan></text></g><path d="M341.7,87.0C333.1,251.2 350.4,228.9 341.7,303.0" stroke="#000000" fill="none" style="stroke-width: 2;"></path><g class="signal"><text x="83.9140625" y="117" style="font-size: 16px; font-family: danielbd;"><tspan x="83.9140625">I'am a user</tspan></text><path d="M46.3,123.0C102.5,129.8 87.8,116.2 216.9,123.0" stroke="#000000" fill="none" style="stroke-width: 2; marker-end: url(&quot;#markerArrowBlock&quot;);"></path></g><g class="signal"><text x="231.6171875" y="153" style="font-size: 16px; font-family: danielbd;"><tspan x="231.6171875">I'am a user</tspan></text><path d="M216.9,159.0C288.7,164.0 246.9,154.0 341.7,159.0" stroke="#000000" fill="none" style="stroke-width: 2; marker-end: url(&quot;#markerArrowBlock&quot;);"></path></g><g class="signal"><text x="226.90625" y="189" style="font-size: 16px; font-family: danielbd;"><tspan x="226.90625">He is a user</tspan></text><path d="M341.7,195.0C248.7,190.0 306.2,200.0 216.9,195.0" stroke="#000000" fill="none" style="stroke-width: 2; marker-end: url(&quot;#markerArrowBlock&quot;);"></path></g><g class="signal"><text x="69.7578125" y="225.5" style="font-size: 16px; font-family: danielbd;"><tspan x="69.7578125">He is an admin</tspan></text><path d="M216.9,232.0C189.6,225.2 73.6,238.8 46.3,232.0" stroke="#000000" fill="none" style="stroke-width: 2; stroke-dasharray: 6, 2; marker-end: url(&quot;#markerArrowBlock&quot;);"></path></g><g class="note"><path d="M66.328125,252C112.3,246.8 87.2,257.2 196.9,252.0C198.1,266.6 195.7,271.3 196.9,283.0C157.2,288.2 97.7,277.8 66.3,283.0C65.1,275.6 67.6,274.2 66.3,252.0" stroke="#000000" fill="#ffffff" style="stroke-width: 2;"></path><text x="71.328125" y="271" style="font-size: 16px; font-family: danielbd;"><tspan x="71.328125">Patch packets</tspan></text></g></svg>