<?xml version="1.0" encoding="utf-8" standalone="no"?><!DOCTYPE svg PUBLIC "-//W3C//DTD SVG 20010904//EN" "http://www.w3.org/TR/2001/REC-SVG-20010904/DTD/svg10.dtd"><svg xmlns="http://www.w3.org/2000/svg" width="240" height="232" xmlns:xlink="http://www.w3.org/1999/xlink"><source><![CDATA[Title: basic view
Client->Server: I'am a user
Server->Client: He is a user]]></source><desc>basic view</desc><defs><marker viewBox="0 0 5 5" markerWidth="5" markerHeight="5" orient="auto" refX="5" refY="2.5" id="markerArrowBlock"><path d="M 0 0 L 5 2.5 L 0 5 z"></path></marker><marker viewBox="0 0 9.6 16" markerWidth="4" markerHeight="16" orient="auto" refX="9.6" refY="8" id="markerArrowOpen"><path d="M 9.6,8 1.92,16 0,13.7 5.76,8 0,2.286 1.92,0 9.6,8 z"></path></marker></defs><g class="title"><path d="M10,10C82.4,6.2 60.8,13.8 105.2,10.0C106.2,31.8 104.2,21.5 105.2,36.0C82.4,32.2 47.6,39.8 10.0,36.0C9.0,28.2 11.0,29.0 10.0,10.0" stroke="#000000" fill="#ffffff" style="stroke-width: 2;"></path><text x="15" y="28" style="font-size: 16px; font-family: danielbd;"><tspan x="15">basic view</tspan></text></g><g class="actor"><path d="M10,46C47.5,43.1 37.2,48.9 82.7,46.0C84.1,57.9 81.2,77.1 82.7,83.0C61.2,80.1 21.6,85.9 10.0,83.0C8.5,71.5 11.5,74.1 10.0,46.0" stroke="#000000" fill="#ffffff" style="stroke-width: 2;"></path><text x="20" y="70" style="font-size: 16px; font-family: danielbd;"><tspan x="20">Client</tspan></text></g><g class="actor"><path d="M10,175C35.4,177.9 30.1,172.1 82.7,175.0C84.1,187.6 81.2,203.7 82.7,212.0C29.0,209.1 58.1,214.9 10.0,212.0C11.5,206.1 8.5,185.4 10.0,175.0" stroke="#000000" fill="#ffffff" style="stroke-width: 2;"></path><text x="20" y="199" style="font-size: 16px; font-family: danielbd;"><tspan x="20">Client</tspan></text></g><path d="M46.3,83.0C50.0,97.7 42.6,107.5 46.3,175.0" stroke="#000000" fill="none" style="stroke-width: 2;"></path><g class="actor"><path d="M131.453125,46C150.5,49.2 144.2,42.8 210.9,46.0C209.4,64.8 212.3,51.9 210.9,83.0C191.8,86.2 187.1,79.8 131.5,83.0C130.0,56.0 132.9,69.7 131.5,46.0" stroke="#000000" fill="#ffffff" style="stroke-width: 2;"></path><text x="142.453125" y="69.5" style="font-size: 16px; font-family: danielbd;"><tspan x="141.453125">Server</tspan></text></g><g class="actor"><path d="M131.453125,175C171.3,178.2 157.6,171.8 210.9,175.0C209.4,180.9 212.3,199.0 210.9,212.0C150.7,215.2 177.1,208.8 131.5,212.0C132.9,183.9 130.0,203.1 131.5,175.0" stroke="#000000" fill="#ffffff" style="stroke-width: 2;"></path><text x="142.453125" y="198.5" style="font-size: 16px; font-family: danielbd;"><tspan x="141.453125">Server</tspan></text></g><path d="M171.2,83.0C174.8,111.6 167.5,137.3 171.2,175.0" stroke="#000000" fill="none" style="stroke-width: 2;"></path><g class="signal"><text x="61.0390625" y="113" style="font-size: 16px; font-family: danielbd;"><tspan x="61.0390625">I'am a user</tspan></text><path d="M46.3,119.0C141.2,114.0 100.1,124.0 171.2,119.0" stroke="#000000" fill="none" style="stroke-width: 2; marker-end: url(&quot;#markerArrowBlock&quot;);"></path></g><g class="signal"><text x="56.328125" y="149" style="font-size: 16px; font-family: danielbd;"><tspan x="56.328125">He is a user</tspan></text><path d="M171.2,155.0C151.2,150.0 66.3,160.0 46.3,155.0" stroke="#000000" fill="none" style="stroke-width: 2; marker-end: url(&quot;#markerArrowBlock&quot;);"></path></g></svg>